<svg xmlns="http://www.w3.org/2000/svg" xml:space="preserve" fill-rule="evenodd" stroke-linecap="round" stroke-linejoin="round" stroke-miterlimit="1.5" clip-rule="evenodd" viewBox="0 0 469 358">
  <path fill="none" d="M12.048 3.525h431.68v306.913H12.048z"/>
  <clipPath id="a">
    <path d="M12.048 3.525h431.68v306.913H12.048z"/>
  </clipPath>
  <g clip-path="url(#a)">
    <circle cx="247.042" cy="200.541" r="193.113" fill="#9a57ff"/>
  </g>
  <path fill-opacity=".15" d="m209.284 308.796 71.411-10.367 142.058 19.63-15.786 2.926 60.278 16.42c1.014.276 1.696 1.143 1.658 2.108-.037.965-.785 1.785-1.819 1.995l-72.683 14.749a39.157 39.157 0 0 1-14.968.113l-81.284-15.21-13.879 2.573a88.549 88.549 0 0 1-34.219-.391l-61.259-12.822-2.516 2.667c-4.468 4.737-10.864 7.605-17.706 7.94l-79.416 3.994c-5.321.26-10.565-1.242-14.767-4.229l-28.264-18.613c-.632-.45-.896-1.207-.664-1.907.232-.699.912-1.196 1.711-1.251l163.453-11.744-1.339 1.419Z"/>
  <path fill="url(#b)" d="m15.136 134.336-10.828-3.171-.093-39.043 14.989-4.468a442.245 442.245 0 0 1 4.471-15.611l-5.739-11.599 17.72-23.593 17.62 4.758c7.869-4.775 33.903-37.394 33.903-37.394S120.76 29.161 128.974 31.4l16.782-10.2 23.592 17.72-2.873 16.064a442.277 442.277 0 0 1 6.442 10.324l18.388.114 10.831 37.51-12.288 7.848a438.271 438.271 0 0 1-4.502 20.104l11.911 12.477-19.443 33.856-12.705-3.028a441.582 441.582 0 0 1-27.369 16.825l-2.181 14.825-38.654 5.495-5.743-12.571a442.39 442.39 0 0 1-32.661-8.819l-10.072 5.731-28.134-27.069 6.663-12.837a440.732 440.732 0 0 1-11.822-21.433Z"/>
  <clipPath id="c">
    <path d="m15.136 134.336-10.828-3.171-.093-39.043 14.989-4.468a442.245 442.245 0 0 1 4.471-15.611l-5.739-11.599 17.72-23.593 17.62 4.758c7.869-4.775 33.903-37.394 33.903-37.394S120.76 29.161 128.974 31.4l16.782-10.2 23.592 17.72-2.873 16.064a442.277 442.277 0 0 1 6.442 10.324l18.388.114 10.831 37.51-12.288 7.848a438.271 438.271 0 0 1-4.502 20.104l11.911 12.477-19.443 33.856-12.705-3.028a441.582 441.582 0 0 1-27.369 16.825l-2.181 14.825-38.654 5.495-5.743-12.571a442.39 442.39 0 0 1-32.661-8.819l-10.072 5.731-28.134-27.069 6.663-12.837a440.732 440.732 0 0 1-11.822-21.433Z"/>
  </clipPath>
  <g clip-path="url(#c)">
    <path fill="url(#d)" d="m93.518 48.808 56.247 22.622 21.41 54.786-59.405 50.982-71.261-32.407 5.295-58.582 47.714-37.401Z"/>
    <path fill="url(#e)" d="m93.518 48.808-8.821-62.05-110.448 45.697 71.562 53.749 47.707-37.396Z"/>
    <path fill="url(#f)" d="M45.804 86.209-25.745 32.47l19.729 159.418 46.532-47.106 5.288-58.573Z"/>
    <path fill="url(#g)" d="m40.509 144.791-46.52 47.097 126.067 43.601-8.263-58.126-71.284-32.572Z"/>
    <path fill="url(#h)" d="m93.518 48.808-8.821-62.05L203.506-.135l-53.749 71.562-56.239-22.619Z"/>
    <path fill="url(#i)" d="M149.765 71.43 203.504-.119l25.479 158.601-57.816-32.273-21.402-54.779Z"/>
    <path fill="url(#j)" d="m171.175 126.216 57.802 32.267-108.921 77.006-8.263-58.126 59.382-51.147Z"/>
    <path fill="#7330e7" d="M80.168 140.773a4.218 4.218 0 0 1 1.304-5.816 4.216 4.216 0 0 1 4.518.004s5.589 3.139 19.935 1.099c14.346-2.039 18.838-6.611 18.838-6.611a4.22 4.22 0 0 1 5.949-.379 4.218 4.218 0 0 1 1.262 4.339s-4.422 15.974-23.764 18.724c-19.343 2.75-28.042-11.36-28.042-11.36Z"/>
    <path fill="#f8f3ff" d="M67.247 90.545c9.209-1.309 17.749 5.105 19.058 14.315 1.309 9.209-5.105 17.749-14.314 19.058-9.21 1.31-17.75-5.105-19.059-14.314-1.309-9.21 5.105-17.749 14.315-19.059Z"/>
    <path fill="#8b5cf6" d="M70.6 96.199c6.744-.959 12.997 3.738 13.955 10.481.959 6.744-3.738 12.997-10.481 13.955-6.743.959-12.996-3.738-13.955-10.481-.959-6.743 3.738-12.996 10.481-13.955Z"/>
    <path fill="#f8f3ff" d="M130.662 81.531c-9.21 1.309-15.624 9.849-14.315 19.058 1.31 9.21 9.85 15.624 19.059 14.315 9.21-1.31 15.624-9.85 14.314-19.059-1.309-9.21-9.849-15.624-19.058-14.314Z"/>
    <path fill="#8b5cf6" d="M133.61 87.678c-6.743.959-11.439 7.212-10.481 13.955.959 6.744 7.212 11.44 13.955 10.482 6.743-.959 11.44-7.212 10.481-13.955-.958-6.744-7.211-11.44-13.955-10.482Z"/>
  </g>
  <path fill="none" stroke="url(#k)" stroke-width="8.43" d="m15.136 134.336-10.828-3.171-.093-39.043 14.989-4.468a442.245 442.245 0 0 1 4.471-15.611l-5.739-11.599 17.72-23.593 17.62 4.758c7.869-4.775 33.903-37.394 33.903-37.394S120.76 29.161 128.974 31.4l16.782-10.2 23.592 17.72-2.873 16.064a442.277 442.277 0 0 1 6.442 10.324l18.388.114 10.831 37.51-12.288 7.848a438.271 438.271 0 0 1-4.502 20.104l11.911 12.477-19.443 33.856-12.705-3.028a441.582 441.582 0 0 1-27.369 16.825l-2.181 14.825-38.654 5.495-5.743-12.571a442.39 442.39 0 0 1-32.661-8.819l-10.072 5.731-28.134-27.069 6.663-12.837a440.732 440.732 0 0 1-11.822-21.433Z"/>
  <path fill="#d88b56" d="m149.466 168.76 133.47-12.166 112.319 11.42.023-.003-8.987 149.075-126.665 20.979v.006L151.66 315.854l-2.194-147.094Z"/>
  <path fill="#e3975d" d="m282.936 156.594-1.038 149.705 93.222 7.883 20.155-146.166-112.339-11.422Z"/>
  <path fill="#d38652" d="m282.936 156.594-1.038 149.705-126.901 8.387-5.53-145.926 133.469-12.166Z"/>
  <path fill="#d88b56" d="m395.278 168.011-8.987 149.075-126.664 20.979V184.901l135.651-16.89Z"/>
  <clipPath id="l">
    <path d="m395.278 168.011-8.987 149.075-126.664 20.979V184.901l135.651-16.89Z"/>
  </clipPath>
  <g clip-path="url(#l)">
    <path fill="url(#m)" d="m395.278 168.011 7.022 64.584a12.78 12.78 0 0 1-10.05 13.883l-117.937 25.053a7.366 7.366 0 0 1-8.874-6.668l-5.812-79.962 135.651-16.89Z"/>
  </g>
  <g fill-rule="nonzero">
    <path fill="#fff" d="M382.752 146.056s-.015-1.14-.122-1.146l-20.484-1.079a3.318 3.318 0 0 0-3.424 2.601l-1.747 7.868-15.789-1.228.018-7.365a3.347 3.347 0 0 0-2.835-3.299l-21.312-3.196a3.348 3.348 0 0 0-3.677 2.323l-2.144 7.046-15.454-3.457.637-8.034a3.318 3.318 0 0 0-2.51-3.492l-19.91-4.977c-.103-.025-.346 1.077-.451 1.062l-.682 4.365 16.695 5.325-.642 8.105a3.344 3.344 0 0 0 2.591 3.511l21.284 4.761a3.343 3.343 0 0 0 3.913-2.279l2.205-7.25 15.629 2.343-.019 7.579a3.347 3.347 0 0 0 3.07 3.326l21.747 1.691a3.345 3.345 0 0 0 3.507-2.596l1.763-7.938 17.517-.207.626-4.363Z"/>
    <path fill="#fff" stroke="#fff" stroke-linecap="butt" stroke-miterlimit="2" stroke-width="5.76" d="M328.135 52.319a3.537 3.537 0 0 0-.919-.048c-6.09.426-12.292 1.38-18.352 3.372a3.815 3.815 0 0 0-2.596 3.156c-.487 3.942-.717 7.814-.863 11.735-1.597.657-3.181 1.236-4.992 2.291-1.283.711-2.733 1.64-4.144 2.49-2.648-2.274-5.327-4.544-8.219-6.588a3.816 3.816 0 0 0-4.582.134c-4.94 3.94-9.734 8.342-13.925 13.523a3.817 3.817 0 0 0-.539 3.902c1.673 3.903 3.524 7.594 5.515 11.202l-6.08 40.548c-1.678 11.187 4.487 20.837 14.372 27.524 9.884 6.688 23.627 11.127 39.115 13.505l.101.015c15.505 2.269 29.945 2.057 41.354-1.439 11.408-3.495 20.13-10.914 21.807-22.099l5.927-39.493c3.068-3.313 5.69-6.567 8.718-10.142a3.817 3.817 0 0 0 .629-3.886c-2.486-6.183-5.782-11.8-9.349-17.016-.958-1.4-2.726-2-4.338-1.471-3.363 1.105-6.592 2.493-9.79 3.89-1.099-1.227-2.21-2.54-3.232-3.598-.004-.001-.008-.001-.011-.016-1.419-1.535-2.759-2.551-4.088-3.645 1.009-3.791 1.926-7.56 2.617-11.472a3.818 3.818 0 0 0-1.556-3.779c-5.21-3.68-10.859-6.412-16.559-8.606a3.814 3.814 0 0 0-4.323 1.145c-2.385 2.916-4.529 6.074-6.614 9.199-1.389-.339-2.789-.75-4.15-.97l-.128-.02-.045-.006c-1.368-.189-2.829-.208-4.257-.291-1.033-3.455-2.125-6.946-3.483-10.308a3.795 3.795 0 0 0-3.02-2.743l-.001.005Z"/>
    <path fill="#478cbf" d="M327.496 55.979c-5.873.412-11.759 1.328-17.428 3.19-.577 4.673-.945 9.177-1.014 13.799-2.244 1.004-4.564 1.807-6.706 3.056-2.167 1.203-4.366 2.335-6.387 3.819a110.183 110.183 0 0 0-10.1-8.096c-4.797 3.826-9.378 8.044-13.338 12.94 1.798 4.195 3.736 8.166 5.899 11.982l.075.011-4.94 32.95c.06.009.12.018.178.041l19.907 4.976a2.2 2.2 0 0 1 1.659 2.308l-.714 9.01 17.432 3.9 2.448-8.048a2.198 2.198 0 0 1 2.43-1.535l21.311 3.195a2.2 2.2 0 0 1 1.873 2.181l-.02 8.411 17.81 1.386 1.959-8.824a2.201 2.201 0 0 1 2.263-1.72l20.484 1.08c.06.009.121.005.182.014l.394-2.63.008.002 4.546-30.317.075.011c3.188-3.014 6.203-6.242 9.154-9.726-2.349-5.841-5.494-11.218-8.957-16.282a110.157 110.157 0 0 0-12.031 4.778c-1.496-2.012-3.263-3.739-4.984-5.525-1.681-1.822-3.666-3.27-5.513-4.888 1.288-4.439 2.257-8.853 3.076-13.489-4.874-3.444-10.231-6.046-15.728-8.162-2.843 3.475-5.538 7.296-7.952 11.064-2.091-.68-4.225-1.136-6.378-1.485l-.083-.012c-2.164-.298-4.336-.489-6.535-.452-1.201-4.31-2.657-8.753-4.358-12.91l.003-.003Zm-54.626 78.005c-.285 1.953-.58 4.095-.644 4.521-2.877 19.183 20.076 32.052 50.294 36.692l.074.011c30.25 4.427 55.96-1.145 58.836-20.328.065-.434.411-2.559.712-4.511l-18.418-.972-1.97 8.871a2.201 2.201 0 0 1-2.318 1.716l-21.747-1.691-.157-.024a2.2 2.2 0 0 1-1.871-2.181l.021-8.553-17.556-2.632-2.489 8.183a2.196 2.196 0 0 1-2.584 1.506l-21.286-4.761a2.2 2.2 0 0 1-1.713-2.32l.719-9.058-17.903-4.469Z"/>
    <path fill="#fff" d="M314.631 115.811c-1.009 6.726-7.276 11.357-13.999 10.349-6.72-1.008-11.355-7.274-10.346-13.999 1.008-6.722 7.275-11.35 13.996-10.342 6.723 1.008 11.356 7.271 10.349 13.992m14.462 15.801c-2.165-.325-3.68-2.183-3.385-4.149l1.681-11.207c.294-1.964 2.288-3.298 4.452-2.973 2.164.324 3.683 2.185 3.388 4.149l-1.68 11.207c-.295 1.966-2.292 3.297-4.456 2.973m18.461-10.864c-1.008 6.726 3.624 12.991 10.349 14 6.72 1.007 12.987-3.624 13.996-10.35 1.008-6.721-3.626-12.984-10.346-13.992-6.725-1.008-12.991 3.62-13.999 10.342"/>
    <path fill="#414042" d="M304.722 106.814a8.169 8.169 0 1 0-2.422 16.157 8.17 8.17 0 1 0 2.422-16.157Zm54.938 8.238c-4.461-.669-8.618 2.408-9.287 6.869a8.166 8.166 0 0 0 6.864 9.288 8.167 8.167 0 0 0 9.292-6.866 8.168 8.168 0 0 0-6.869-9.291Z"/>
  </g>
  <path fill="#f7bd7a" d="M259.626 184.901v153.17L151.66 315.854l-2.194-147.093 110.16 16.14Z"/>
  <clipPath id="n">
    <path d="M259.626 184.901v153.17L151.66 315.854l-2.194-147.093 110.16 16.14Z"/>
  </clipPath>
  <g clip-path="url(#n)">
    <path fill="url(#o)" d="m259.626 184.901-7.85 41.014a9.608 9.608 0 0 1-10.913 7.688l-90.783-14.111a9.612 9.612 0 0 1-6.366-3.941 9.613 9.613 0 0 1-1.604-7.314l7.356-39.476 110.16 16.14Z"/>
    <path fill="url(#p)" d="m173.654 272.805.167 56.885h-66.86l17.46-80.983 49.233 24.098Z"/>
  </g>
  <path fill="#f8ba77" d="m395.278 168.011 28.869 30.417a6.568 6.568 0 0 1-3.551 10.974L315.8 229.094a23.766 23.766 0 0 1-21.8-7.183l-34.373-37.01 135.651-16.89Z"/>
  <path fill="#fed18a" d="m259.626 184.901-35.742 36.181a19.714 19.714 0 0 1-17.052 5.626l-81.267-12.632a9.512 9.512 0 0 1-5.268-16.123l29.169-29.192 110.16 16.14Z"/>
  <path fill="#fecd87" d="m378.974 353.222-66.807-12.871.404-94.553-.002-.01 58.189-8.341 76.64 7.273-.404 94.553-68.02 13.949Z"/>
  <path fill="#fecd87" d="M378.974 254.763v98.459l-66.807-12.871.404-94.553 66.403 8.965Z"/>
  <path fill="#e1965d" d="M378.974 254.763v98.459l68.02-13.949.404-94.553-68.424 10.043Z"/>
  <path fill="#fcc682" d="m378.974 254.763-66.405-8.975 58.189-8.341 76.64 7.273-68.424 10.043Z"/>
  <path fill="#ffd797" d="M355.366 251.575v28.14l-20.569-2.179.404-28.683 20.165 2.722Z"/>
  <path fill="#fcd18c" d="m355.366 251.575 58.794-10.009-21.423-2.033-57.536 9.32 20.165 2.722Z"/>
  <path fill="#ffd08a" d="m53.036 248.911-.002-.008 71.029-2.69 33.143 9.788-1.381 79.858-79.387 2.95-22.867-15.15-.535-74.748Z"/>
  <path fill="#ffd08a" d="m76.693 258.416-.255 80.393-22.867-15.15-.535-74.748 23.657 9.505Z"/>
  <path fill="#e69f64" d="m76.693 258.416-.255 80.393 79.387-2.95 1.381-79.858-80.513 2.415Z"/>
  <path fill="#fec883" d="m76.693 258.416-23.659-9.513 71.029-2.69 33.143 9.788-80.513 2.415Z"/>
  <path fill="#f2b681" d="M124.838 256.973v25.403l-21.314 1.087.032-25.846 21.282-.644Z"/>
  <path fill="#ffd8a4" d="m124.838 256.973-18.933-9.745-21.011.482 18.662 9.907 21.282-.644Z"/>
  <defs>
    <linearGradient id="b" x1="0" x2="1" y1="0" y2="0" gradientTransform="matrix(26 181 -181 26 88.476 22.382)" gradientUnits="userSpaceOnUse">
      <stop offset="0" stop-color="#d3b4fe"/>
      <stop offset="0" stop-color="#cbacfb"/>
      <stop offset="1" stop-color="#8566e5"/>
    </linearGradient>
    <linearGradient id="d" x1="0" x2="1" y1="0" y2="0" gradientTransform="matrix(18 126 -124 18 93.82 48.995)" gradientUnits="userSpaceOnUse">
      <stop offset="0" stop-color="#c3a1fd"/>
      <stop offset="1" stop-color="#9272e6"/>
    </linearGradient>
    <linearGradient id="e" x1="0" x2="1" y1="0" y2="0" gradientTransform="matrix(-52 40 -40 -52 91.684 40.772)" gradientUnits="userSpaceOnUse">
      <stop offset="0" stop-color="#d4b2ff"/>
      <stop offset="1" stop-color="#d3b3fe"/>
    </linearGradient>
    <linearGradient id="f" x1="0" x2="1" y1="0" y2="0" gradientTransform="matrix(-6 68 -68 -6 40.096 82.263)" gradientUnits="userSpaceOnUse">
      <stop offset="0" stop-color="#cba6fd"/>
      <stop offset="1" stop-color="#b595f7"/>
    </linearGradient>
    <linearGradient id="g" x1="0" x2="1" y1="0" y2="0" gradientTransform="matrix(79 38 -38 79 33.943 152.288)" gradientUnits="userSpaceOnUse">
      <stop offset="0" stop-color="#9e7bec"/>
      <stop offset="1" stop-color="#7d60da"/>
    </linearGradient>
    <linearGradient id="h" x1="0" x2="1" y1="0" y2="0" gradientTransform="matrix(65 25 -25 65 91.817 35.476)" gradientUnits="userSpaceOnUse">
      <stop offset="0" stop-color="#d1abff"/>
      <stop offset="1" stop-color="#bb99fb"/>
    </linearGradient>
    <linearGradient id="i" x1="0" x2="1" y1="0" y2="0" gradientTransform="rotate(69 31.877 145.21) scale(74)" gradientUnits="userSpaceOnUse">
      <stop offset="0" stop-color="#a785f1"/>
      <stop offset="1" stop-color="#8869e0"/>
    </linearGradient>
    <linearGradient id="j" x1="0" x2="1" y1="0" y2="0" gradientTransform="rotate(139 65.014 99.384) scale(88)" gradientUnits="userSpaceOnUse">
      <stop offset="0" stop-color="#775ad5"/>
      <stop offset="1" stop-color="#7459d5"/>
    </linearGradient>
    <linearGradient id="k" x1="0" x2="1" y1="0" y2="0" gradientTransform="matrix(28 198 -198 28 87.32 7.211)" gradientUnits="userSpaceOnUse">
      <stop offset="0" stop-color="#fff"/>
      <stop offset="1" stop-color="#eadcff"/>
    </linearGradient>
    <linearGradient id="m" x1="0" x2="1" y1="0" y2="0" gradientTransform="matrix(-3 -34 25 -2 323.937 262.578)" gradientUnits="userSpaceOnUse">
      <stop offset="0" stop-color="#d88b56"/>
      <stop offset="1" stop-color="#cc8056"/>
    </linearGradient>
    <linearGradient id="o" x1="0" x2="1" y1="0" y2="0" gradientTransform="matrix(15 13 -13 15 232.428 203.397)" gradientUnits="userSpaceOnUse">
      <stop offset="0" stop-color="#e59d64"/>
      <stop offset="1" stop-color="#e59d64" stop-opacity="0"/>
    </linearGradient>
    <linearGradient id="p" x1="0" x2="1" y1="0" y2="0" gradientTransform="matrix(4 -46 56 5 162.226 317.339)" gradientUnits="userSpaceOnUse">
      <stop offset="0" stop-color="#e29b65" stop-opacity=".55"/>
      <stop offset="1" stop-color="#e29b65" stop-opacity=".14"/>
    </linearGradient>
  </defs>
</svg>
