<svg xmlns="http://www.w3.org/2000/svg" xml:space="preserve" fill-rule="evenodd" stroke-linejoin="round" stroke-miterlimit="2" clip-rule="evenodd" viewBox="0 0 812 304">
  <path fill="#fff" fill-rule="nonzero" d="M79.8 303.3c53.4 0 91.2-31.5 91.2-95.1V69h-32.7l-2.1 31.2c-9.9-19.2-32.1-33.6-57-33.6C35.4 66.6 0 104.7 0 151.5c0 46.5 35.4 84.6 79.2 84.6 24.6 0 46.5-13.8 56.1-32.1v10.5c0 38.1-25.2 54.6-53.7 54.6-17.7 0-35.1-7.5-45.9-19.8L9 270.3c15.6 20.7 43.2 33 70.8 33ZM85.5 201c-27.3 0-49.2-22.2-49.2-49.5 0-27.6 21.9-49.8 49.2-49.8 27.6 0 49.8 22.2 49.8 49.8 0 27.3-22.2 49.5-49.8 49.5Zm194.7 35.1c24.9 0 47.1-14.4 57-33l2.1 30.9H372V0h-35.7v99c-9.6-18.6-31.8-32.4-56.1-32.4-43.8 0-79.2 38.1-79.2 84.9 0 46.5 35.4 84.6 79.2 84.6Zm6.3-35.1c-27.3 0-49.2-22.2-49.2-49.5 0-27.6 21.9-49.8 49.2-49.8 27.6 0 49.8 22.2 49.8 49.8 0 27.3-22.2 49.5-49.8 49.5Zm203.1 33 63-165h-38.4l-42 111-42.3-111h-38.4l63 165h35.1Zm121.5 0v-84c0-33.6 15-48.3 32.1-48.3s32.1 11.7 32.1 45.3v87H711v-87c0-33.6 16.2-45.3 32.4-45.3 16.8 0 32.1 11.7 32.1 45.3v87h35.7v-87c0-57.6-26.1-80.4-61.8-80.4-22.2 0-39 14.1-46.5 31.8-7.5-18.3-24.3-31.8-48.9-31.8-17.4 0-35.1 9.9-43.8 27.6L608.1 69h-32.7v165h35.7Z"/>
</svg>
